<svg width="134" height="138" version="1.1" xmlns="http://www.w3.org/2000/svg" desc="Created with imagetracer.js version 1.2.6" ><path fill="rgb(167,207,174)" stroke="rgb(167,207,174)" stroke-width="1" opacity="0.4666666666666667" d="M 104.5 4 Q 110 3 111 6.5 L 111 10.5 L 91.5 30 L 110 10.5 Q 111 6 108.5 5 L 104.5 5 L 80.5 29 L 104.5 4 Z " /><path fill="rgb(167,207,174)" stroke="rgb(167,207,174)" stroke-width="1" opacity="0.4666666666666667" d="M 13.5 8 L 17 8.5 Q 11.4 8.4 10 12.5 L 7.5 18 L 7 16.5 L 13.5 8 Z " /><path fill="rgb(167,207,174)" stroke="rgb(167,207,174)" stroke-width="1" opacity="0.4666666666666667" d="M 18.5 9 L 64.5 56 L 75.5 46 L 65.5 57 L 34 26.5 L 18.5 9 Z " /><path fill="rgb(167,207,174)" stroke="rgb(167,207,174)" stroke-width="1" opacity="0.4666666666666667" d="M 114.5 15 L 116 15.5 L 94.5 36 L 92.5 36 L 92.5 35 L 94.5 35 L 114.5 15 Z " /><path fill="rgb(167,207,174)" stroke="rgb(167,207,174)" stroke-width="1" opacity="0.4666666666666667" d="M 118.5 15 L 121 16.5 L 119.5 16 L 118.5 15 Z " /><path fill="rgb(167,207,174)" stroke="rgb(167,207,174)" stroke-width="1" opacity="0.4666666666666667" d="M 6.5 19 L 7 22.5 L 6 22.5 L 6.5 19 Z " /><path fill="rgb(167,207,174)" stroke="rgb(167,207,174)" stroke-width="1" opacity="0.4666666666666667" d="M 120.5 21 L 121 22.5 L 101 41.5 L 120.5 21 Z " /><path fill="rgb(167,207,174)" stroke="rgb(167,207,174)" stroke-width="1" opacity="0.4666666666666667" d="M 126.5 25 L 132 27.5 L 131.5 30 L 131 27 L 126.5 26 L 117.5 34 L 124.5 26 L 126.5 25 Z " /><path fill="rgb(167,207,174)" stroke="rgb(167,207,174)" stroke-width="1" opacity="0.4666666666666667" d="M 6.5 30 L 7 33.5 L 6 33.5 L 6.5 30 Z " /><path fill="rgb(167,207,174)" stroke="rgb(167,207,174)" stroke-width="1" opacity="0.4666666666666667" d="M 79.5 30 L 79 31.5 L 78.5 33 L 78 31.5 L 79.5 30 Z " /><path fill="rgb(167,207,174)" stroke="rgb(167,207,174)" stroke-width="1" opacity="0.4666666666666667" d="M 90.5 31 L 91 33.5 L 90 33.5 L 90.5 31 Z " /><path fill="rgb(167,207,174)" stroke="rgb(167,207,174)" stroke-width="1" opacity="0.4666666666666667" d="M 131.5 31 L 132 32.5 L 106.5 58 L 100.5 60 L 100.5 59 L 106.5 57 L 131 32.5 L 131.5 31 Z " /><path fill="rgb(167,207,174)" stroke="rgb(167,207,174)" stroke-width="1" opacity="0.4666666666666667" d="M 116.5 35 L 106.5 46 L 116.5 35 Z " /><path fill="rgb(167,207,174)" stroke="rgb(167,207,174)" stroke-width="1" opacity="0.4666666666666667" d="M 76.5 37 L 77 44.5 L 76 44.5 L 76.5 37 Z " /><path fill="rgb(167,207,174)" stroke="rgb(167,207,174)" stroke-width="1" opacity="0.4666666666666667" d="M 9.5 42 L 13 48.5 L 11 47.5 L 9.5 42 Z " /><path fill="rgb(167,207,174)" stroke="rgb(167,207,174)" stroke-width="1" opacity="0.4666666666666667" d="M 13.5 50 L 14.5 52 L 13.5 50 Z " /><path fill="rgb(167,207,174)" stroke="rgb(167,207,174)" stroke-width="1" opacity="0.4666666666666667" d="M 15.5 53 L 17.5 56 L 15.5 53 Z " /><path fill="rgb(167,207,174)" stroke="rgb(167,207,174)" stroke-width="1" opacity="0.4666666666666667" d="M 18.5 57 L 46.5 85 L 50 86.5 L 48.5 87 L 18.5 57 Z " /><path fill="rgb(167,207,174)" stroke="rgb(167,207,174)" stroke-width="1" opacity="0.4666666666666667" d="M 91.5 60 L 99 60.5 L 91.5 61 L 81 71.5 L 119 111.5 L 120 114.5 L 119 114.5 L 118 111.5 L 80 71.5 L 91.5 60 Z " /><path fill="rgb(167,207,174)" stroke="rgb(167,207,174)" stroke-width="1" opacity="0.4666666666666667" d="M 31.5 84 L 33.5 84 L 40 90.5 L 33.5 85 L 31.5 85 L 8 108.5 L 5.5 113 L 5 111.5 L 31.5 84 Z " /><path fill="rgb(167,207,174)" stroke="rgb(167,207,174)" stroke-width="1" opacity="0.4666666666666667" d="M 51.5 87 L 54 87.5 L 51.5 88 L 51.5 87 Z " /><path fill="rgb(167,207,174)" stroke="rgb(167,207,174)" stroke-width="1" opacity="0.4666666666666667" d="M 58.5 87 L 63.5 87 L 68 91.5 L 63.5 88 Q 57.5 89.2 58.5 87 Z " /><path fill="rgb(167,207,174)" stroke="rgb(167,207,174)" stroke-width="1" opacity="0.4666666666666667" d="M 41.5 91 L 42.5 93 L 41.5 91 Z " /><path fill="rgb(167,207,174)" stroke="rgb(167,207,174)" stroke-width="1" opacity="0.4666666666666667" d="M 68.5 93 L 69 98.5 L 68 98.5 L 68.5 93 Z " /><path fill="rgb(167,207,174)" stroke="rgb(167,207,174)" stroke-width="1" opacity="0.4666666666666667" d="M 46.5 94 L 51 95.5 L 48.5 96 L 46.5 94 Z " /><path fill="rgb(167,207,174)" stroke="rgb(167,207,174)" stroke-width="1" opacity="0.4666666666666667" d="M 53.5 96 Q 59.5 94.5 61 97.5 L 59.5 97 L 53.5 97 L 53.5 96 Z " /><path fill="rgb(167,207,174)" stroke="rgb(167,207,174)" stroke-width="1" opacity="0.4666666666666667" d="M 59.5 99 L 27.5 132 L 59.5 99 Z " /><path fill="rgb(167,207,174)" stroke="rgb(167,207,174)" stroke-width="1" opacity="0.4666666666666667" d="M 69.5 100 L 71 103.5 L 95 127.5 L 70 103.5 L 69.5 100 Z " /><path fill="rgb(167,207,174)" stroke="rgb(167,207,174)" stroke-width="1" opacity="0.4666666666666667" d="M 4.5 114 L 5 116.5 L 4 116.5 L 4.5 114 Z " /><path fill="rgb(167,207,174)" stroke="rgb(167,207,174)" stroke-width="1" opacity="0.4666666666666667" d="M 120.5 116 L 121 121.5 L 120 121.5 L 120.5 116 Z " /><path fill="rgb(167,207,174)" stroke="rgb(167,207,174)" stroke-width="1" opacity="0.4666666666666667" d="M 4.5 119 Q 4.6 127.9 10.5 131 L 14 132.5 L 12.5 133 L 6 127.5 Q 2.9 124.5 4.5 119 Z " /><path fill="rgb(167,207,174)" stroke="rgb(167,207,174)" stroke-width="1" opacity="0.4666666666666667" d="M 117.5 128 L 114.5 132 L 111.5 133 L 111.5 132 L 117.5 128 Z " /><path fill="rgb(167,207,174)" stroke="rgb(167,207,174)" stroke-width="1" opacity="0.4666666666666667" d="M 97.5 130 L 98.5 132 L 97.5 130 Z " /><path fill="rgb(167,207,174)" stroke="rgb(167,207,174)" stroke-width="1" opacity="0.4666666666666667" d="M 15.5 133 L 24 133.5 L 15.5 134 L 15.5 133 Z " /><path fill="rgb(167,207,174)" stroke="rgb(167,207,174)" stroke-width="1" opacity="0.4666666666666667" d="M 102.5 133 L 110 133.5 L 102.5 134 L 102.5 133 Z " /><path fill="rgb(0,0,0)" stroke="rgb(0,0,0)" stroke-width="1" opacity="0" d="M 0 0 L 134 0 L 134 138 L 0 138 L 0 0 Z M 105 4 L 80 29 L 76 38 L 76 46 L 65 56 L 35 26 L 19 9 L 14 8 Q 8 12 6 20 Q 5 30 7 38 Q 11 49 18 58 L 47 86 Q 52 90 64 88 L 68 93 Q 67 100 70 104 L 95 129 L 95 130 L 103 134 Q 111 135 115 132 Q 119 128 121 122 Q 122 115 119 112 L 81 72 L 92 61 L 99 61 L 107 58 L 132 33 L 132 28 L 129 25 L 125 26 L 117 35 L 106 46 L 102 46 L 101 44 L 121 23 L 122 20 L 120 15 L 115 15 L 95 35 L 91 35 L 91 31 L 111 11 L 111 7 Q 110 3 105 4 Z M 32 84 L 7 109 L 4 115 Q 2 124 6 128 Q 9 132 16 134 Q 24 135 28 132 L 61 98 L 60 96 Q 51 97 46 94 L 34 84 L 32 84 Z " /><path fill="rgb(79,153,87)" stroke="rgb(79,153,87)" stroke-width="1" opacity="1" d="M 104.5 5 Q 109 4 110 6.5 L 110 10.5 L 91 29.5 L 90 33.5 Q 90.5 36.5 94.5 36 L 114.5 16 L 117.5 15 L 121 17.5 L 120 22.5 L 101 41.5 L 101 46 L 104.5 47 L 117 35.5 L 124.5 27 L 128.5 26 L 131 27 L 132 30.5 L 106.5 57 Q 101.7 61.2 91.5 60 L 80 71.5 L 118 111.5 Q 121.2 114.8 120 122.5 Q 118.8 128.3 114.5 131 Q 110.5 134.5 101.5 133 L 95 128.5 L 71 103.5 Q 68 100.5 69 93.5 L 63.5 87 L 54.5 88 L 46.5 85 L 18 56.5 Q 6.8 45.2 6 23.5 L 10 12.5 L 13.5 9 L 17.5 9 L 34 25.5 L 64.5 57 L 76 46.5 Q 78.3 43.3 77 36.5 L 80 29.5 L 104.5 5 Z " /><path fill="rgb(21,174,92)" stroke="rgb(21,174,92)" stroke-width="1" opacity="0.9921568627450981" d="M 31.5 85 L 33.5 85 Q 39.1 92.4 48.5 96 L 60 97 L 60 98.5 L 27.5 131 Q 23.5 134.5 14.5 133 L 7 127.5 Q 3.3 123.2 5 113.5 L 8 108.5 L 31.5 85 Z " /></svg>